<?xml version="1.0" encoding="UTF-8"?>
<svg id="Layer_2" data-name="Layer 2" xmlns="http://www.w3.org/2000/svg" viewBox="0 0 28.84 28.9">
  <defs>
    <style>
      .cls-1 {
        fill: #231f20;
        fill-rule: evenodd;
      }
    </style>
  </defs>
  <g id="logos">
    <path class="cls-1" d="M4.6,3.83C7.27,1.37,10.76,0,14.39,0v.02c2.69,0,5.33.75,7.61,2.16,2.28,1.41,4.13,3.44,5.33,5.84,1.2,2.41,1.7,5.1,1.45,7.77-.25,2.68-1.24,5.23-2.86,7.37-1.62,2.14-3.81,3.79-6.31,4.76-2.51.97-5.23,1.22-7.87.72-2.64-.5-5.09-1.72-7.07-3.53-1.98-1.81-3.42-4.14-4.15-6.73l5.54,2.29c.2.99.77,1.87,1.58,2.47.82.6,1.82.88,2.83.78,1.01-.1,1.94-.57,2.62-1.32.68-.75,1.06-1.73,1.06-2.74v-.19l4.91-3.5h.11c1.08,0,2.13-.32,3.03-.92.9-.6,1.59-1.45,2.01-2.44.41-1,.52-2.09.31-3.15-.21-1.06-.73-2.03-1.49-2.79-.76-.76-1.73-1.28-2.79-1.49-1.06-.21-2.15-.1-3.15.31-1,.41-1.85,1.11-2.44,2.01-.6.9-.92,1.95-.92,3.03v.06l-3.44,4.99h-.23c-.82,0-1.62.25-2.3.71L0,13.28c.29-3.62,1.93-6.99,4.6-9.45ZM9.05,21.91l-1.78-.73c.26.54.67.99,1.18,1.3.51.31,1.1.46,1.69.44.6-.02,1.17-.21,1.66-.55.49-.34.87-.82,1.09-1.37.22-.55.28-1.16.16-1.74-.12-.58-.4-1.12-.82-1.55-.42-.43-.95-.72-1.53-.85-.58-.13-1.19-.08-1.75.13l1.83.76c.54.24.96.68,1.18,1.23.22.55.21,1.16-.01,1.7-.23.54-.66.98-1.2,1.21-.54.23-1.15.24-1.7.03h0ZM22.18,8.71c.4.6.61,1.3.61,2.02,0,.96-.39,1.88-1.07,2.56-.68.68-1.6,1.06-2.56,1.06-.72,0-1.42-.21-2.02-.61-.6-.4-1.06-.97-1.34-1.63-.27-.66-.35-1.39-.21-2.1.14-.7.49-1.35.99-1.86.51-.51,1.15-.85,1.86-.99.7-.14,1.43-.07,2.1.21.66.28,1.23.74,1.63,1.34ZM16.89,9.21c-.3.45-.46.98-.46,1.52,0,.72.29,1.42.8,1.93.51.51,1.2.8,1.93.8.54,0,1.07-.16,1.52-.46.45-.3.8-.73,1-1.22.21-.5.26-1.05.15-1.58-.11-.53-.37-1.01-.75-1.4-.38-.38-.87-.64-1.4-.75-.53-.1-1.08-.05-1.58.16-.5.21-.92.56-1.22,1.01Z"/>
  </g>
</svg>