<svg id="Line" xmlns="http://www.w3.org/2000/svg" viewBox="0 0 64 64"><path d="M59.60352,23.52783,53,18.52777V11.86523a3.00328,3.00328,0,0,0-3-3H40.25586L35.625,5.3584a6.00976,6.00976,0,0,0-7.24854-.001L23.74414,8.86523H14a3.00328,3.00328,0,0,0-3,3v6.66254L4.39648,23.52783a1.061,1.061,0,0,0-.37376.70064c-.14109.07615.054,29.543-.02293,29.63684a6.03558,6.03558,0,0,0,6.00026,5.99987l44,0a6.00488,6.00488,0,0,0,6-6v-29.54A.99951.99951,0,0,0,59.60352,23.52783ZM53,21.03638l4.3573,3.29925L53,27.72314ZM29.585,6.95117a4.00433,4.00433,0,0,1,4.83154.001l2.52637,1.91308H27.05719ZM13,11.86523a1.0013,1.0013,0,0,1,1-1H50a1.0013,1.0013,0,0,1,1,1V29.27808L35.07471,41.65918a4.67713,4.67713,0,0,1-5.939.16013L13,29.277Zm-2,9.17115v6.686L6.64282,24.33551ZM6,53.86523V26.36938L26.6391,42.415,6.8609,56.33032A3.97605,3.97605,0,0,1,6,53.86523Zm48,4H10a3.97566,3.97566,0,0,1-1.449-.27887L28.32721,43.67242a6.51781,6.51781,0,0,0,7.34637.00053L55.4491,57.58643A3.97949,3.97949,0,0,1,54,57.86523Zm4-4a3.97641,3.97641,0,0,1-.861,2.46509L37.3587,42.41345,58,26.36914Z"/><path d="M32.01709,36.8291c1.25968.04171,6.31381-.75828,5.34922-2.70694a.99977.99977,0,0,0-1.3668-.36484c-4.48937,2.7726-10.99629-.09238-11.84951-5.35514-1.72658-10.4616,13.30578-13.46963,15.70015-3.1506.41135,1.90989.21841,4.835-2.35028,4.7471L37.5,23.45215a1,1,0,0,0-1-1,.98436.98436,0,0,0-.75269.36053A5.4737,5.4737,0,0,0,32,21.32715c-7.26778.231-7.26767,10.76963.00012,11A5.46366,5.46366,0,0,0,35.201,31.29077,4.37112,4.37112,0,0,0,41.8764,28.4037a10.25632,10.25632,0,0,0-.06146-3.52431c-1.35472-7.74661-11.47605-10.77023-16.88628-5.12284C18.64056,25.90528,23.17169,36.95464,32.01709,36.8291ZM32,30.32715a3.50022,3.50022,0,0,1,.00011-7A3.50022,3.50022,0,0,1,32,30.32715Z"/></svg>